<svg width="53" height="60" viewBox="0 0 53 60" fill="none" xmlns="http://www.w3.org/2000/svg">
<path d="M19.3447 17.6841L19.5046 21.3157L16.9466 26.0526L12.9498 33.7894L12.1504 40.2631L15.0281 49.421L21.583 53.0526H31.4952L40.7679 46.1052L44.9247 35.2104L35.3322 23.6841L32.6143 17.2104L19.3447 17.6841Z" fill="#ECEFF1"/>
<path d="M42.0458 26.6843C39.4878 23.0527 37.4095 20.8422 36.2903 16.2633C35.1712 11.6843 36.6101 12.9475 35.6508 9.00011C35.1712 6.94747 34.3719 5.52642 33.5725 4.42116C32.6132 3.3159 31.4941 2.68432 30.8546 2.52642C29.4157 1.73695 26.0584 0.47379 21.9016 2.68432C17.585 4.89484 18.0646 9.63169 18.864 19.2633C18.864 19.8948 18.7041 20.6843 18.3844 21.3159C17.7449 22.7369 16.6258 24.0001 15.6665 25.1054C14.5474 26.6843 13.4283 28.2633 12.6289 30.0001C10.7104 33.6317 8.95179 38.2106 9.43141 39.9475C10.2308 39.7896 20.3029 54.9475 20.3029 55.2633C20.9424 55.1054 23.6603 55.1054 26.0584 55.1054C29.4157 54.9475 31.3342 54.7896 34.0521 55.4212C34.0521 54.9475 33.8922 54.4738 33.8922 54.0001C33.8922 53.0527 34.0521 52.2633 34.212 51.158C34.3718 50.3685 34.5317 49.5791 34.6916 48.6317C33.0929 50.0527 30.2151 51.6317 27.4972 52.1054C25.0991 52.579 21.1023 51.7896 19.1838 49.4212C19.3436 49.4212 19.6634 49.4212 19.8233 49.2633C20.3029 49.1054 20.7825 48.9475 20.9424 48.6317C21.422 47.8422 21.1023 47.0527 20.7825 46.5791C20.4628 46.1054 18.0646 44.3685 16.9455 43.4212C15.8264 42.4738 15.1869 42.0001 14.5474 41.3685C14.5474 41.3685 13.5882 40.4212 13.2684 40.1054C12.9487 39.7896 12.7888 39.4738 12.6289 39.3159C12.3092 38.5264 12.1493 37.5791 12.3092 36.3159C12.469 34.5791 13.1085 33.158 13.9079 31.5791C14.2277 30.9475 15.027 29.6843 15.027 29.6843C15.027 29.6843 12.3092 36.3159 13.748 38.3685C13.748 38.3685 13.9079 36.3159 14.5474 34.2633C15.027 32.8422 15.8264 30.7896 16.7856 29.6843C17.7449 28.5791 20.143 24.4738 20.3029 21.9475C20.3029 20.8422 20.4628 19.7369 20.4628 18.9475C19.8233 18.3159 31.0145 16.7369 31.654 18.4738C31.8139 19.1054 34.0521 24.7896 35.3311 27.7896C35.9706 29.2106 36.77 30.4738 37.2496 32.0527C37.7292 33.7896 38.049 36.158 38.049 38.5264C38.049 39.0001 38.049 39.7896 37.8891 40.5791C38.2088 40.5791 44.444 33.9475 37.0897 28.4212C37.0897 28.4212 41.5662 30.4738 41.7261 34.5791C41.886 37.8948 40.4471 40.5791 40.1273 41.0527C40.2872 41.0527 43.4847 42.4738 43.6446 42.4738C44.2841 42.4738 45.5631 42.0001 45.5631 42.0001C45.7229 41.5264 46.2026 40.2633 46.2026 39.7896C47.3217 36.158 44.6038 30.3159 42.0458 26.6843Z" fill="#263238"/>
<path d="M21.7444 16.2626C22.8922 16.2626 23.8228 14.8487 23.8228 13.1047C23.8228 11.3606 22.8922 9.94678 21.7444 9.94678C20.5965 9.94678 19.666 11.3606 19.666 13.1047C19.666 14.8487 20.5965 16.2626 21.7444 16.2626Z" fill="#ECEFF1"/>
<path d="M28.9386 16.5786C30.4396 16.5786 31.6564 14.9527 31.6564 12.947C31.6564 10.9413 30.4396 9.31543 28.9386 9.31543C27.4375 9.31543 26.2207 10.9413 26.2207 12.947C26.2207 14.9527 27.4375 16.5786 28.9386 16.5786Z" fill="#ECEFF1"/>
<path d="M22.9038 13.3211C22.7709 12.2829 22.1661 11.5033 21.553 11.5799C20.9398 11.6564 20.5504 12.5601 20.6832 13.5983C20.8161 14.6364 21.4209 15.416 22.0341 15.3394C22.6473 15.2629 23.0367 14.3592 22.9038 13.3211Z" fill="#212121"/>
<path d="M28.7765 15.6316C29.6594 15.6316 30.3752 14.7126 30.3752 13.579C30.3752 12.4454 29.6594 11.5264 28.7765 11.5264C27.8935 11.5264 27.1777 12.4454 27.1777 13.579C27.1777 14.7126 27.8935 15.6316 28.7765 15.6316Z" fill="#212121"/>
<path d="M50.0413 48.3159C49.4018 48.0001 48.2827 47.5264 47.3234 46.1054C46.8438 45.3159 47.0037 43.1054 46.2043 42.158C45.7247 41.5264 45.0852 41.8422 44.9253 41.8422C43.4864 42.158 40.1291 44.3685 37.8908 41.8422C37.5711 41.5264 37.0915 41.0527 36.2921 41.0527C35.4927 41.0527 35.173 41.3685 34.8532 42.0001C34.5335 42.6317 34.5335 43.1054 34.5335 44.6843C34.5335 45.9475 34.5335 47.3685 34.3736 48.4738C34.0538 51.158 33.5742 52.7369 33.5742 54.3159C33.5742 56.0527 34.0538 57.158 34.6933 57.6317C35.173 58.1054 35.9723 58.4212 37.731 58.4212C39.4896 58.4212 40.6087 57.7896 41.7278 56.6843C42.5272 55.8948 43.1667 55.5791 45.4049 54.0001C47.1636 52.8948 49.8814 51.4738 50.3611 51.0001C50.6808 50.6843 51.1604 50.5264 51.1604 49.5791C51.1604 48.7896 50.5209 48.4738 50.0413 48.3159Z" fill="#FFC107"/>
<path d="M17.9059 48.7892C16.3071 46.2629 16.1473 45.7892 15.0281 44.2103C14.0689 42.6314 11.9905 39.6313 10.7115 39.6313C9.75227 39.6313 9.27265 40.105 8.63315 40.7366C7.99365 41.3682 7.35416 42.7892 6.23503 43.5787C5.27579 44.3682 2.55792 44.2103 1.91842 45.1577C1.27892 46.105 2.55792 47.5261 2.55792 49.8945C2.55792 50.8419 1.75854 51.4735 1.59867 52.105C1.4388 52.8945 1.27892 53.3682 1.59867 53.9998C2.23817 54.9471 3.03754 55.2629 8.47328 56.3682C11.351 56.9998 14.0689 58.5787 15.8275 58.7366C17.5861 58.8945 20.6237 58.7366 20.6237 54.4735C20.7836 51.9471 19.3448 51.3156 17.9059 48.7892Z" fill="#FFC107"/>
<path d="M20.9442 20.2104C19.9849 19.5789 19.1855 18.9473 19.1855 17.9999C19.1855 17.0526 19.825 16.7368 20.7843 15.9473C20.9442 15.7894 22.7028 14.2104 24.4614 14.2104C26.22 14.2104 28.2984 15.3157 29.0978 15.6315C30.5366 15.9473 31.9755 16.2631 31.8156 17.3683C31.6558 18.9473 31.4959 19.2631 29.8971 20.0526C28.778 20.3683 26.6997 22.1052 25.2608 22.1052C24.6213 22.1052 23.662 22.1052 23.0225 21.9473C22.5429 21.7894 21.7435 20.9999 20.9442 20.2104Z" fill="#FFC107"/>
<path d="M20.6232 18.9475C20.9429 19.2633 21.4225 19.579 21.9022 19.7369C22.2219 19.8948 22.7015 20.0527 22.7015 20.0527C23.341 20.0527 23.8206 20.0527 24.1404 20.0527C24.9398 20.0527 26.0589 19.7369 27.178 19.1054C28.2971 18.6317 28.457 18.3159 29.2564 18.0001C30.0558 17.5264 30.8551 17.0527 30.5354 16.8948C30.2156 16.7369 29.8959 16.8948 28.7768 17.5264C27.8175 18.158 27.0181 18.4738 26.0589 18.9475C25.5793 19.1054 24.9398 19.4212 24.4601 19.4212C23.9805 19.4212 23.5009 19.4212 23.0213 19.4212C22.5416 19.4212 22.2219 19.2633 21.7423 19.1054C21.4225 18.9475 21.2627 18.7896 21.1028 18.7896C20.783 18.6317 20.1435 18.0001 19.8238 17.8422C19.8238 17.8422 19.504 17.8422 19.6639 18.0001C20.1435 18.4738 20.3034 18.6317 20.6232 18.9475Z" fill="#634703"/>
<path d="M25.4199 15.4738C25.5798 15.7896 25.8995 15.7896 26.0594 15.9475C26.2193 16.1054 26.3792 16.1054 26.3792 16.1054C26.539 15.9475 26.3792 15.6317 26.2193 15.6317C26.2193 15.3159 25.4199 15.3159 25.4199 15.4738Z" fill="#634703"/>
<path d="M22.8594 15.7896C22.8594 15.9475 23.1791 16.1054 23.1791 15.9475C23.339 15.7896 23.4989 15.6317 23.6587 15.6317C23.9785 15.4738 23.8186 15.3159 23.339 15.3159C23.0193 15.4738 23.0192 15.6317 22.8594 15.7896Z" fill="#634703"/>
<path d="M38.37 43.7368C38.37 43.8947 38.37 44.0526 38.37 44.2105C38.6897 44.8421 39.4891 45 40.1286 45C41.0878 45 42.0471 44.3684 42.5267 43.7368C42.5267 43.579 42.6866 43.4211 42.8465 43.2632C43.1662 42.7895 43.3261 42.4737 43.486 42.3158C43.486 42.3158 43.3261 42.1579 43.3261 42C43.1662 41.6842 42.6866 41.3684 42.0471 41.2105C41.5675 41.0526 40.7681 40.8947 40.4483 40.8947C39.0095 40.7368 38.2101 41.2105 37.7305 41.6842C37.7305 41.6842 37.8903 41.6842 37.8903 41.8421C38.2101 42.1579 38.37 42.4737 38.37 42.9474C38.5298 43.2632 38.37 43.4211 38.37 43.7368Z" fill="#455A64"/>
</svg>
