<svg width="14" height="14" viewBox="0 0 14 14" fill="none" xmlns="http://www.w3.org/2000/svg">
<path fill-rule="evenodd" clip-rule="evenodd" d="M13.1238 1.87385C13.5143 1.48333 13.5143 0.850166 13.1238 0.459641C12.7333 0.069117 12.1001 0.069117 11.7096 0.459641L6.79169 5.37753L1.87379 0.459641C1.48327 0.0691175 0.850105 0.0691176 0.45958 0.459642C0.0690559 0.850165 0.0690559 1.48333 0.45958 1.87385L5.37747 6.79175L0.459581 11.7096C0.0690564 12.1002 0.0690564 12.7333 0.459581 13.1239C0.850105 13.5144 1.48327 13.5144 1.87379 13.1239L6.79169 8.20596L11.7096 13.1239C12.1001 13.5144 12.7333 13.5144 13.1238 13.1239C13.5143 12.7333 13.5143 12.1002 13.1238 11.7096L8.2059 6.79175L13.1238 1.87385Z" fill="black"/>
</svg>
