<svg width="29" height="29" viewBox="0 0 29 29" fill="none" xmlns="http://www.w3.org/2000/svg">
<path d="M26.2604 0.439453H2.73934C1.82017 0.439453 1.06885 1.19077 1.06885 2.11833V20.8253C1.06885 21.7528 1.82017 22.5041 2.73934 22.5041H26.2604C27.1838 22.5041 27.9309 21.7528 27.9309 20.8253V2.11833C27.9309 1.19077 27.1838 0.439453 26.2604 0.439453ZM14.4999 21.1232C14.0214 21.1232 13.6311 20.7329 13.6311 20.2544C13.6311 19.7759 14.0214 19.3855 14.4999 19.3855C14.9784 19.3855 15.3687 19.7759 15.3687 20.2544C15.3687 20.7329 14.9784 21.1232 14.4999 21.1232ZM25.6393 18.2103H3.36055V2.7479H25.6393V18.2103ZM21.5008 27.5785V28.141C21.5008 28.3718 21.3119 28.5607 21.0811 28.5607H8.12433C7.89347 28.5607 7.70462 28.3718 7.70462 28.141V27.5785C7.70462 26.6593 8.44755 25.9164 9.35832 25.9164H9.79486L10.7266 23.3436H18.4746L19.4106 25.9164H19.8471C20.7579 25.9164 21.5008 26.6593 21.5008 27.5785Z" fill="url(#paint0_linear_8028_9549)"/>
<path d="M26.2604 0.439453H2.73934C1.82017 0.439453 1.06885 1.19077 1.06885 2.11833V20.8253C1.06885 21.7528 1.82017 22.5041 2.73934 22.5041H26.2604C27.1838 22.5041 27.9309 21.7528 27.9309 20.8253V2.11833C27.9309 1.19077 27.1838 0.439453 26.2604 0.439453ZM14.4999 21.1232C14.0214 21.1232 13.6311 20.7329 13.6311 20.2544C13.6311 19.7759 14.0214 19.3855 14.4999 19.3855C14.9784 19.3855 15.3687 19.7759 15.3687 20.2544C15.3687 20.7329 14.9784 21.1232 14.4999 21.1232ZM25.6393 18.2103H3.36055V2.7479H25.6393V18.2103ZM21.5008 27.5785V28.141C21.5008 28.3718 21.3119 28.5607 21.0811 28.5607H8.12433C7.89347 28.5607 7.70462 28.3718 7.70462 28.141V27.5785C7.70462 26.6593 8.44755 25.9164 9.35832 25.9164H9.79486L10.7266 23.3436H18.4746L19.4106 25.9164H19.8471C20.7579 25.9164 21.5008 26.6593 21.5008 27.5785Z" fill="black" fill-opacity="0.07"/>
<path d="M11.096 9.17796L8.81688 10.4791L11.0918 11.776C12.0295 12.3118 11.2611 13.785 10.2607 13.2366L7.03307 11.3941C6.70146 11.2052 6.5 10.8652 6.5 10.4833C6.5 10.1056 6.69729 9.76135 7.02885 9.57249L10.2607 7.7215C11.2491 7.16128 12.0323 8.64924 11.096 9.17796ZM16.758 6.96605L13.8116 14.5965C13.4169 15.6447 11.8482 15.0197 12.246 13.9921L15.1924 6.36162C15.5802 5.33203 17.1626 5.92052 16.758 6.96605ZM22.4998 10.4832C22.4998 10.8694 22.2983 11.2093 21.9668 11.3982L18.7391 13.224C17.7733 13.7713 16.9499 12.2939 17.9122 11.7592L20.1746 10.479L17.9122 9.1947C17.6478 9.04781 17.4841 8.7666 17.4841 8.46439C17.4841 8.00271 17.8619 7.62497 18.3236 7.62497C18.4705 7.62497 18.6132 7.66271 18.7391 7.73829L21.9668 9.57245C22.3025 9.76135 22.4998 10.1013 22.4998 10.4832Z" fill="url(#paint1_linear_8028_9549)"/>
<path d="M11.096 9.17796L8.81688 10.4791L11.0918 11.776C12.0295 12.3118 11.2611 13.785 10.2607 13.2366L7.03307 11.3941C6.70146 11.2052 6.5 10.8652 6.5 10.4833C6.5 10.1056 6.69729 9.76135 7.02885 9.57249L10.2607 7.7215C11.2491 7.16128 12.0323 8.64924 11.096 9.17796ZM16.758 6.96605L13.8116 14.5965C13.4169 15.6447 11.8482 15.0197 12.246 13.9921L15.1924 6.36162C15.5802 5.33203 17.1626 5.92052 16.758 6.96605ZM22.4998 10.4832C22.4998 10.8694 22.2983 11.2093 21.9668 11.3982L18.7391 13.224C17.7733 13.7713 16.9499 12.2939 17.9122 11.7592L20.1746 10.479L17.9122 9.1947C17.6478 9.04781 17.4841 8.7666 17.4841 8.46439C17.4841 8.00271 17.8619 7.62497 18.3236 7.62497C18.4705 7.62497 18.6132 7.66271 18.7391 7.73829L21.9668 9.57245C22.3025 9.76135 22.4998 10.1013 22.4998 10.4832Z" fill="black" fill-opacity="0.07"/>
<defs>
<linearGradient id="paint0_linear_8028_9549" x1="1.06885" y1="28.5607" x2="31.1882" y2="24.4797" gradientUnits="userSpaceOnUse">
<stop stop-color="#1EA7F5"/>
<stop offset="1" stop-color="#29DDFF"/>
</linearGradient>
<linearGradient id="paint1_linear_8028_9549" x1="6.5" y1="15.1373" x2="23.7451" y2="10.9348" gradientUnits="userSpaceOnUse">
<stop stop-color="#1EA7F5"/>
<stop offset="1" stop-color="#29DDFF"/>
</linearGradient>
</defs>
</svg>
