<svg width="44" height="44" viewBox="0 0 44 44" fill="none" xmlns="http://www.w3.org/2000/svg">
<g id="kubernetes-security-specialist-logo 1">
<g id="Group 33162">
<path id="Vector" d="M41.9361 25.8245C41.6988 24.668 41.4143 23.5214 41.1513 22.3702C40.8561 21.0782 40.5616 19.786 40.2679 18.4936C39.9762 17.2194 39.6833 15.9455 39.3891 14.6719C39.0953 13.3887 38.8055 12.1045 38.5111 10.8213C38.3778 10.2066 38.0361 9.65757 37.5446 9.26834C37.2531 9.05664 36.9382 8.87957 36.6063 8.74065C33.8889 7.43258 31.1703 6.12676 28.4507 4.82318C26.6802 3.97308 24.9114 3.11901 23.1382 2.27457C22.8176 2.11722 22.4681 2.02818 22.1116 2.01306C21.7552 1.99793 21.3995 2.05704 21.0668 2.18667C20.635 2.34657 20.2325 2.57332 19.8175 2.77162C19.1154 3.10714 18.4089 3.43341 17.7094 3.77426C17.0883 4.0769 16.4656 4.3762 15.8414 4.67216C15.1836 4.9827 14.5311 5.30461 13.8761 5.62138C13.3455 5.87802 12.8155 6.13603 12.2839 6.39053C11.5405 6.74644 10.7949 7.09777 10.0519 7.45464C9.50287 7.71839 8.95791 7.99081 8.40854 8.25397C7.86116 8.51618 7.30111 8.75394 6.77294 9.05358C6.45244 9.229 6.17325 9.4718 5.95438 9.76545C5.73551 10.0591 5.58207 10.3967 5.50451 10.7553C5.10676 12.4623 4.72055 14.1719 4.32991 15.8805C3.58817 19.1248 2.84574 22.3689 2.10262 25.6128C1.9877 26.0438 1.97819 26.4963 2.07492 26.9317C2.17166 27.3672 2.37174 27.7726 2.65809 28.1134C4.23636 30.0758 5.80993 32.042 7.37879 34.0121C8.98365 36.0191 10.5889 38.0258 12.1946 40.0322C12.4442 40.3553 12.7655 40.6152 13.1328 40.7912C13.5 40.9672 13.9031 41.0543 14.3098 41.0457C16.8624 41.0481 19.4149 41.0484 21.9675 41.0466C24.5294 41.0466 27.0913 41.0464 29.6532 41.046C30.067 41.0549 30.4773 40.9676 30.8521 40.791C31.227 40.6144 31.5563 40.3532 31.8145 40.0278C32.0168 39.7835 32.2113 39.5325 32.4095 39.2847C33.8437 37.4904 35.2778 35.6961 36.7121 33.9019C37.4786 32.943 38.245 31.984 39.0114 31.0249C39.8256 30.0036 40.6421 28.984 41.4488 27.9567C41.6852 27.6616 41.8519 27.3163 41.9363 26.947C42.0207 26.5776 42.0206 26.1938 41.9361 25.8245ZM37.8626 14.9427C38.0593 15.7975 38.2622 16.651 38.4486 17.508C38.5553 17.9987 38.6641 18.489 38.7748 18.9789C38.8753 19.4239 38.9841 19.8681 39.0896 20.3125C39.288 21.1486 39.4718 21.9882 39.663 22.826C39.8233 23.5284 39.9871 24.23 40.1462 24.9327C40.2002 25.1708 40.2596 25.4073 40.2899 25.6491C40.132 25.5 39.9379 25.3951 39.7271 25.345C39.6397 25.3274 39.5086 25.2923 39.4212 25.2747C39.0851 25.2271 38.7465 25.2007 38.4072 25.1955C37.6641 25.1164 37.0522 25.0548 36.5102 24.879C36.2917 24.7911 36.1343 24.5273 36.0557 24.413L35.6273 24.2899C35.8546 22.6343 35.7805 20.951 35.4088 19.322C35.0382 17.6754 34.3652 16.1128 33.4244 14.7147C33.5381 14.618 33.7391 14.4333 33.8003 14.3718C33.7853 14.1508 33.8576 13.9328 34.0014 13.7651C34.4897 13.3438 35.0165 12.9699 35.5749 12.6484C35.8792 12.4934 36.174 12.3202 36.4578 12.1296C36.5277 12.0769 36.6151 11.9978 36.6938 11.945C36.8498 11.8211 36.9745 11.6618 37.0576 11.4802C37.0906 11.5782 37.1184 11.6779 37.1409 11.779C37.2434 12.2498 37.3501 12.7197 37.4575 13.1894C37.5912 13.7741 37.7281 14.3581 37.8626 14.9427ZM23.9481 4.32793C26.4186 5.50574 28.8863 6.68925 31.3513 7.87846C32.757 8.55326 34.1625 9.22824 35.568 9.90342C35.6628 9.94902 35.7563 9.99685 35.8485 10.0469C35.6759 10.0922 35.5143 10.1726 35.3738 10.2832C35.3039 10.3447 35.2077 10.4151 35.1378 10.4678C34.8911 10.7037 34.6576 10.9532 34.4385 11.2152C34.0051 11.6929 33.528 12.1286 33.0136 12.5165C32.8125 12.6396 32.5066 12.5957 32.3754 12.5869L31.9733 12.877C29.6529 10.4338 26.5329 8.91625 23.188 8.60379C23.1793 8.46311 23.1705 8.20812 23.1618 8.12899C22.9795 8.00355 22.8538 7.81079 22.8121 7.59264C22.7684 7.02111 22.8471 6.40563 22.9345 5.65825C23.0036 5.32441 23.0533 4.98678 23.0831 4.64709V4.34814C23.0832 4.18472 23.0526 4.02275 22.9927 3.8708C23.3194 4.00321 23.6298 4.17618 23.9481 4.32793ZM10.3127 8.99735C10.9229 8.70385 11.5342 8.41283 12.1443 8.11936C12.7795 7.81386 13.4142 7.50759 14.0486 7.20052C14.6671 6.90288 15.2859 6.60594 15.9051 6.30969C16.5528 5.99831 17.2004 5.6865 17.8477 5.37426C18.4661 5.077 19.0823 4.77468 19.7046 4.48589C20.1596 4.27476 20.6004 4.03112 21.0666 3.84682C21.001 4.00571 20.9674 4.17609 20.9676 4.34813V4.37451C20.9676 4.46243 20.9589 4.56795 20.9676 4.64707C20.9975 4.98676 21.0471 5.32439 21.1162 5.65824C21.2036 6.39681 21.2823 7.02109 21.2299 7.59262C21.1709 7.80612 21.0527 7.99828 20.889 8.14655L20.8627 8.59497C20.2182 8.64727 19.5783 8.74719 18.9483 8.89393C16.3003 9.4937 13.8918 10.878 12.0337 12.8682C11.92 12.7891 11.7103 12.6396 11.6491 12.5957C11.4567 12.622 11.2732 12.6836 11.0197 12.5341C10.5033 12.1518 10.026 11.7188 9.59478 11.2416C9.37801 10.9775 9.14441 10.7278 8.89545 10.4942C8.83426 10.4415 8.72936 10.3623 8.65942 10.3096C8.50524 10.1853 8.32467 10.0984 8.13171 10.0557C8.14141 10.0506 8.15007 10.0447 8.15986 10.0397C8.87112 9.67952 9.5942 9.34297 10.3127 8.99735ZM5.08699 19.505C5.4239 18.0307 5.76198 16.5566 6.10125 15.0828C6.36681 13.9259 6.62318 12.7668 6.90218 11.6132C6.91468 11.5615 6.9315 11.5129 6.94672 11.4631C7.02984 11.6625 7.16197 11.8374 7.3307 11.9714C7.33944 11.9714 7.33944 11.9802 7.34819 11.9802C7.41811 12.0329 7.50554 12.1121 7.56673 12.156C7.87269 12.3758 8.14367 12.4989 8.44088 12.6748C8.99695 12.9965 9.52351 13.3673 10.0144 13.7827C10.1432 13.9625 10.2162 14.1767 10.2242 14.3982L10.5651 14.7059C8.69267 17.529 7.92368 20.9486 8.40592 24.3075L7.9601 24.4394C7.84338 24.6256 7.68839 24.7845 7.50554 24.9054C6.96355 25.0812 6.35164 25.1428 5.60861 25.2219C5.26929 25.2271 4.93063 25.2535 4.59458 25.3011C4.5159 25.3186 4.40226 25.345 4.31484 25.3626H4.28862C4.06861 25.4148 3.86674 25.5259 3.70439 25.6842C3.7179 25.5375 3.74123 25.392 3.77424 25.2485C4.21963 23.3358 4.64949 21.4195 5.08699 19.505ZM11.0721 30.6909C12.1556 32.123 13.503 33.332 15.0408 34.252L14.8485 34.718C14.9395 34.9031 14.973 35.1114 14.9446 35.3159C14.6779 35.9218 14.356 36.5017 13.9831 37.048C13.7777 37.3212 13.588 37.606 13.4149 37.9009C13.3712 37.9801 13.3187 38.1032 13.275 38.1911C13.2098 38.3319 13.1702 38.4834 13.158 38.6383C13.0699 38.5497 12.9867 38.4562 12.9091 38.3582C12.2376 37.5039 11.554 36.6592 10.8757 35.8104C10.2207 34.9907 9.56571 34.1712 8.91067 33.3516C8.18239 32.4413 7.45379 31.5313 6.72485 30.6216C6.02915 29.751 5.33446 28.8796 4.64079 28.0074C4.48482 27.8114 4.31685 27.6242 4.17072 27.4207C4.36396 27.4703 4.56613 27.4731 4.76065 27.4289H4.77814C4.78477 27.4279 4.79091 27.4249 4.79562 27.4201C4.88304 27.4025 4.99668 27.3761 5.06662 27.3585C5.39149 27.2553 5.7097 27.132 6.01945 26.9892C6.71878 26.7343 7.29572 26.5232 7.86393 26.4441C8.09995 26.4265 8.34472 26.5936 8.47585 26.6639L8.93915 26.5848C9.40234 28.0336 10.1025 29.3947 11.0109 30.6118M22.0084 39.4116C20.2662 39.4116 18.524 39.4117 16.7818 39.4118C16.1996 39.412 15.6174 39.4135 15.0351 39.4162C15.0137 39.4163 14.9937 39.4134 14.9725 39.4131C15.0564 39.3213 15.1265 39.2177 15.1807 39.1055C15.2244 39.0264 15.2768 38.9121 15.3118 38.8329C15.4323 38.5138 15.5345 38.1879 15.6177 37.857C15.8975 37.1535 16.0548 36.4062 16.4395 35.949C16.5656 35.8314 16.724 35.7548 16.894 35.7291L17.13 35.2895C19.6626 36.2736 22.4301 36.4726 25.0762 35.861C25.6954 35.723 26.3032 35.5378 26.8944 35.3071C26.9644 35.4302 27.0868 35.6588 27.1217 35.7204C27.339 35.7557 27.5337 35.8758 27.6637 36.0545C27.9659 36.6259 28.209 37.2269 28.3892 37.8482C28.4725 38.1791 28.5747 38.505 28.6952 38.8242C28.7302 38.9033 28.7826 39.0176 28.8263 39.0967C28.8805 39.2107 28.9509 39.316 29.0354 39.4095C26.6931 39.4152 24.3507 39.4116 22.0084 39.4116ZM32.9961 30.6997C33.9149 29.4594 34.6237 28.075 35.0941 26.6024C35.2339 26.6199 35.47 26.6639 35.5486 26.6815C35.6283 26.607 35.7218 26.5492 35.8239 26.5115C35.9259 26.4738 36.0344 26.4568 36.1431 26.4617C36.7113 26.5408 37.2882 26.7518 37.9875 27.0068C38.2977 27.1487 38.6158 27.272 38.9404 27.3761C39.0191 27.3937 39.124 27.4201 39.2114 27.4377C39.218 27.4386 39.2241 27.4417 39.2289 27.4465H39.2463C39.4276 27.4849 39.615 27.4836 39.7958 27.4426C39.6241 27.6742 39.4269 27.8877 39.2519 28.1166C39.0089 28.4346 38.7599 28.7481 38.5101 29.0607C38.2279 29.414 37.9401 29.7629 37.6577 30.116C37.2895 30.5764 36.9257 31.0403 36.5573 31.5006C36.1945 31.954 35.8266 32.4034 35.4642 32.8572C35.2101 33.1753 34.964 33.4999 34.7095 33.8178C34.4617 34.1275 34.2048 34.43 33.9573 34.7399C33.7065 35.0538 33.4652 35.3754 33.2143 35.6892C32.9299 36.0448 32.6367 36.3932 32.3523 36.7488C32.1046 37.0584 31.8698 37.3785 31.6183 37.6848C31.3658 37.9923 31.1394 38.3246 30.8665 38.6107C30.8618 38.6155 30.8568 38.6197 30.8521 38.6245C30.8377 38.4741 30.797 38.3273 30.732 38.1911C30.6883 38.1032 30.6358 37.9801 30.5921 37.9009C30.419 37.6088 30.2293 37.327 30.0239 37.0568C29.6218 36.4238 29.2896 35.905 29.0886 35.3686C29.0012 35.0961 29.1061 34.9202 29.1673 34.7444C29.0989 34.6051 29.0405 34.4611 28.9924 34.3135C30.5391 33.388 31.8928 32.1698 32.9786 30.7261" fill="#427AF4"/>
<path id="Vector_2" d="M12.3545 14.5073H31.656V19.1499H12.3545V14.5073ZM12.3545 19.9065V22.6498H12.8965V21.8057C12.962 21.8596 13.0234 21.9184 13.0801 21.9816C13.1431 22.0509 13.2015 22.1243 13.2549 22.2014C13.3074 22.2805 13.3598 22.3509 13.4123 22.43C13.4647 22.5091 13.5084 22.5795 13.5434 22.641H14.1641C14.1203 22.5619 14.0679 22.474 14.0154 22.3772C13.9543 22.2805 13.8843 22.1838 13.8144 22.0871C13.7434 21.9894 13.6676 21.8955 13.5871 21.8057C13.5158 21.7224 13.4399 21.6431 13.3598 21.5683C13.5084 21.4276 13.6396 21.2869 13.7619 21.1551C13.8843 21.0232 14.0067 20.8825 14.1378 20.733H13.4997C13.4617 20.7823 13.4209 20.8293 13.3773 20.8737C13.3336 20.9264 13.2812 20.988 13.2287 21.0495C13.1763 21.1111 13.1238 21.1726 13.0626 21.2342C13.0102 21.2957 12.949 21.3573 12.8965 21.4188V19.8186L12.3545 19.9065ZM14.4001 20.733V21.7969C14.4001 21.9184 14.4147 22.0395 14.4438 22.1574C14.4676 22.2593 14.5123 22.3551 14.5749 22.4388C14.6421 22.5213 14.7295 22.5849 14.8284 22.6234C14.9574 22.6693 15.0938 22.6902 15.2305 22.685C15.3828 22.6871 15.5349 22.6753 15.6851 22.6498C15.8249 22.6234 15.9473 22.6058 16.0435 22.5795V20.7242H15.5015V22.2014C15.4641 22.209 15.426 22.212 15.3879 22.2102C15.3442 22.2102 15.3005 22.219 15.2655 22.219C15.2169 22.2254 15.1674 22.2182 15.1226 22.198C15.0778 22.1778 15.0395 22.1455 15.012 22.1047C14.9584 21.9863 14.9344 21.8565 14.9421 21.7266V20.7242H14.4001V20.733ZM16.5593 19.9065V22.5883C16.6117 22.6058 16.6642 22.6146 16.7253 22.6322C16.7914 22.6489 16.8586 22.6607 16.9264 22.6674L17.1362 22.6938C17.203 22.7009 17.2701 22.7038 17.3373 22.7026C17.4801 22.7036 17.6221 22.6798 17.7569 22.6322C17.8754 22.5892 17.9829 22.5201 18.0716 22.43C18.1585 22.3404 18.2243 22.2322 18.2639 22.1134C18.3104 21.9807 18.3341 21.8409 18.3338 21.7002C18.3353 21.5607 18.3176 21.4216 18.2814 21.2869C18.2504 21.1719 18.1969 21.0643 18.124 20.9704C18.055 20.8817 17.9648 20.8122 17.8618 20.7682C17.748 20.7213 17.6262 20.6974 17.5033 20.6978C17.4331 20.6986 17.363 20.7044 17.2935 20.7154C17.2282 20.7319 17.164 20.7525 17.1012 20.777V19.8186L16.5593 19.9065ZM17.2236 21.1726C17.2777 21.1581 17.3338 21.1522 17.3897 21.1551C17.6432 21.1551 17.7743 21.3309 17.7743 21.6826C17.7821 21.8264 17.7422 21.9687 17.6607 22.0871C17.6223 22.1381 17.5717 22.1786 17.5137 22.2047C17.4556 22.2308 17.3919 22.2418 17.3285 22.2366C17.2846 22.2386 17.2406 22.2357 17.1974 22.2278C17.1537 22.2278 17.1187 22.219 17.0925 22.219V21.2342C17.1285 21.2 17.1745 21.1784 17.2236 21.1726ZM20.4405 21.7705V21.665C20.46 21.3974 20.3753 21.1326 20.2045 20.9265C20.1216 20.8422 20.0218 20.7767 19.9118 20.7342C19.8018 20.6918 19.684 20.6734 19.5664 20.6803C19.4499 20.6793 19.3343 20.7002 19.2255 20.7418C19.1152 20.782 19.0163 20.8484 18.937 20.9352C18.8502 21.0267 18.782 21.1342 18.7359 21.2518C18.6374 21.5234 18.6312 21.8203 18.7184 22.0959C18.7584 22.2125 18.8207 22.3201 18.902 22.4124C18.9909 22.5043 19.0982 22.5762 19.2167 22.6234C19.3589 22.6782 19.5103 22.7051 19.6625 22.7026C19.7297 22.704 19.7968 22.7011 19.8636 22.6938C19.9335 22.685 19.9947 22.6762 20.0559 22.6674C20.1171 22.6586 20.1695 22.641 20.2133 22.6322C20.2527 22.6221 20.2909 22.6074 20.3269 22.5883L20.257 22.1486C20.1812 22.1809 20.102 22.2045 20.0209 22.219C19.9258 22.2365 19.8292 22.2453 19.7325 22.2454C19.6031 22.2517 19.475 22.2179 19.3653 22.1486C19.3216 22.1188 19.2849 22.0798 19.2577 22.0342C19.2305 21.9887 19.2136 21.9377 19.208 21.8849H20.4318C20.4318 21.8409 20.4405 21.8057 20.4405 21.7705ZM19.208 21.498C19.2165 21.4504 19.2282 21.4034 19.2429 21.3573C19.2556 21.3135 19.2797 21.274 19.3129 21.243C19.3398 21.2073 19.3761 21.1799 19.4178 21.1639C19.4674 21.142 19.5209 21.13 19.5751 21.1287C19.6298 21.1257 19.6842 21.1379 19.7325 21.1639C19.7747 21.1831 19.8109 21.2135 19.8374 21.2518C19.8661 21.2847 19.887 21.3238 19.8985 21.3661C19.9115 21.4091 19.9203 21.4533 19.9248 21.498H19.208ZM21.7518 20.6978C21.7081 20.6978 21.6731 20.689 21.6469 20.689C21.5001 20.6888 21.3536 20.7035 21.2098 20.733C21.0939 20.7565 20.9799 20.7888 20.8689 20.8297V22.641H21.4109V21.1726C21.4446 21.161 21.4801 21.1551 21.5157 21.1551C21.5595 21.1551 21.6032 21.1463 21.6381 21.1463C21.7084 21.147 21.7785 21.1529 21.8479 21.1638C21.9091 21.1814 21.9703 21.1902 22.014 21.199L22.1014 20.7506C22.0674 20.7362 22.0323 20.7245 21.9965 20.7154C21.9565 20.7053 21.9154 20.6994 21.8742 20.6978C21.8335 20.7022 21.7924 20.7022 21.7518 20.6978ZM24.0333 22.6498V21.5683C24.0328 21.4468 24.0181 21.3259 23.9896 21.2078C23.9658 21.1059 23.9211 21.0101 23.8585 20.9264C23.7913 20.8439 23.7039 20.7803 23.605 20.7418C23.476 20.6959 23.3396 20.675 23.2029 20.6802C23.0506 20.6782 22.8985 20.6899 22.7483 20.7154C22.6085 20.7418 22.4861 20.7594 22.3899 20.7858V22.641H22.9319V21.1638C22.9693 21.1562 23.0074 21.1533 23.0455 21.1551C23.0892 21.1551 23.133 21.1463 23.1679 21.1463C23.2156 21.1404 23.264 21.147 23.3085 21.1655C23.3529 21.184 23.3918 21.2137 23.4214 21.2518C23.4762 21.3667 23.5003 21.494 23.4914 21.6211V22.641H24.0333L24.0333 22.6498ZM26.2187 21.7705V21.665C26.2382 21.3974 26.1535 21.1326 25.9827 20.9265C25.8998 20.8422 25.8 20.7767 25.69 20.7342C25.58 20.6918 25.4622 20.6734 25.3446 20.6803C25.2281 20.6793 25.1125 20.7002 25.0037 20.7418C24.8934 20.782 24.7945 20.8484 24.7152 20.9352C24.6284 21.0267 24.5602 21.1342 24.5141 21.2518C24.4156 21.5234 24.4094 21.8203 24.4966 22.0959C24.5366 22.2125 24.599 22.32 24.6802 22.4124C24.7707 22.5024 24.8775 22.574 24.9949 22.6234C25.1371 22.6782 25.2885 22.7051 25.4407 22.7026C25.5079 22.704 25.575 22.7011 25.6418 22.6938C25.7117 22.685 25.7729 22.6762 25.8341 22.6674C25.8953 22.6586 25.9478 22.641 25.9915 22.6322C26.0316 22.6245 26.0701 22.6096 26.1051 22.5883L26.0352 22.1486C25.9594 22.1809 25.8802 22.2045 25.7991 22.219C25.704 22.2365 25.6074 22.2453 25.5107 22.2454C25.3813 22.2517 25.2532 22.2179 25.1435 22.1486C25.0998 22.1188 25.0631 22.0798 25.0359 22.0342C25.0087 21.9886 24.9918 21.9377 24.9862 21.8849H26.21C26.2169 21.8472 26.2199 21.8089 26.2187 21.7705ZM24.9862 21.498C24.9947 21.4504 25.0064 21.4034 25.0211 21.3573C25.0338 21.3135 25.0579 21.274 25.0911 21.243C25.118 21.2073 25.1543 21.1799 25.196 21.1639C25.2456 21.142 25.2991 21.13 25.3533 21.1287C25.408 21.1257 25.4624 21.1379 25.5107 21.1639C25.5529 21.1831 25.5891 21.2135 25.6156 21.2518C25.6443 21.2847 25.6652 21.3238 25.6768 21.3661C25.6897 21.4091 25.6985 21.4533 25.703 21.498H24.9862ZM26.6209 20.2494V21.8585C26.6186 21.9738 26.6303 22.0889 26.6558 22.2014C26.6767 22.2973 26.7185 22.3874 26.7782 22.4652C26.8398 22.5419 26.9216 22.5998 27.0142 22.6322C27.131 22.6784 27.2561 22.6994 27.3814 22.6938C27.4811 22.6949 27.5806 22.6861 27.6786 22.6674C27.7534 22.6505 27.8265 22.627 27.8971 22.5971L27.8185 22.175C27.7646 22.1948 27.709 22.2095 27.6524 22.219C27.5917 22.2292 27.5303 22.2351 27.4688 22.2365C27.4224 22.2425 27.3752 22.2359 27.3321 22.2173C27.2891 22.1988 27.2518 22.169 27.224 22.131C27.1784 22.0479 27.1571 21.9533 27.1628 21.8585V21.1814H27.8097V20.733H27.1628V20.1703L26.6209 20.2494ZM29.8727 21.7705V21.665C29.8922 21.3974 29.8075 21.1326 29.6367 20.9265C29.5538 20.8422 29.454 20.7767 29.344 20.7342C29.234 20.6918 29.1162 20.6734 28.9986 20.6803C28.8821 20.6793 28.7665 20.7002 28.6577 20.7418C28.5474 20.782 28.4485 20.8484 28.3692 20.9352C28.2824 21.0267 28.2142 21.1342 28.1681 21.2518C28.0696 21.5234 28.0634 21.8203 28.1506 22.0959C28.1906 22.2125 28.253 22.32 28.3342 22.4124C28.4247 22.5024 28.5315 22.574 28.6489 22.6234C28.7911 22.6782 28.9425 22.7051 29.0947 22.7026C29.1619 22.704 29.229 22.7011 29.2958 22.6938C29.3657 22.685 29.4269 22.6762 29.4881 22.6674C29.5493 22.6586 29.6018 22.641 29.6455 22.6322C29.6856 22.6245 29.7241 22.6096 29.7591 22.5883L29.6892 22.1486C29.6134 22.1809 29.5342 22.2045 29.4531 22.219C29.358 22.2365 29.2614 22.2453 29.1647 22.2454C29.0353 22.2517 28.9072 22.2179 28.7975 22.1486C28.7538 22.1188 28.7171 22.0798 28.6899 22.0342C28.6627 21.9886 28.6458 21.9377 28.6402 21.8849H29.864C29.8709 21.8472 29.8739 21.8089 29.8727 21.7705ZM28.6402 21.498C28.6487 21.4504 28.6604 21.4034 28.6751 21.3573C28.6878 21.3135 28.7119 21.274 28.7451 21.243C28.772 21.2073 28.8083 21.1799 28.85 21.1639C28.8996 21.142 28.9531 21.13 29.0073 21.1287C29.062 21.1257 29.1164 21.1379 29.1647 21.1639C29.2069 21.1831 29.2431 21.2135 29.2696 21.2518C29.2983 21.2847 29.3192 21.3238 29.3308 21.3661C29.3437 21.4091 29.3525 21.4533 29.357 21.498H28.6402ZM31.0529 22.2278C30.985 22.2488 30.914 22.2577 30.8431 22.2541C30.7458 22.2555 30.6487 22.2436 30.5546 22.219C30.4587 22.199 30.365 22.1695 30.2749 22.131L30.1874 22.5707C30.2643 22.5999 30.3432 22.6234 30.4235 22.641C30.5612 22.6715 30.702 22.6863 30.8431 22.685C31.0543 22.6957 31.2641 22.6438 31.4462 22.5355C31.5153 22.4881 31.571 22.4235 31.6078 22.348C31.6445 22.2725 31.6612 22.1886 31.656 22.1047C31.657 22.0334 31.6482 21.9624 31.6298 21.8936C31.6098 21.8318 31.5771 21.7748 31.5336 21.7266C31.4815 21.6688 31.4193 21.6211 31.3501 21.5859C31.2548 21.5338 31.1553 21.4897 31.0529 21.454C31.0042 21.4385 30.9573 21.4178 30.913 21.3925C30.8816 21.3789 30.8522 21.3611 30.8256 21.3397C30.8085 21.3244 30.7938 21.3066 30.7819 21.2869C30.7741 21.2674 30.7711 21.2463 30.7731 21.2254C30.7731 21.1287 30.8605 21.0847 31.0266 21.0847C31.109 21.0838 31.1911 21.0927 31.2714 21.1111C31.3399 21.1263 31.4071 21.1469 31.4725 21.1726L31.5686 20.7506C31.4858 20.7215 31.4011 20.698 31.3151 20.6803C31.2055 20.6594 31.0944 20.6476 30.9829 20.6451C30.7869 20.6344 30.593 20.6901 30.4322 20.8033C30.3671 20.854 30.315 20.9195 30.28 20.9944C30.245 21.0693 30.2283 21.1515 30.2311 21.2342C30.2305 21.3154 30.2453 21.396 30.2748 21.4716C30.2992 21.5355 30.3381 21.5927 30.3885 21.6386C30.4416 21.6866 30.5003 21.728 30.5633 21.7617C30.6368 21.7993 30.7127 21.8316 30.7906 21.8585C30.8751 21.8899 30.957 21.9281 31.0354 21.9728C31.0878 22.0079 31.114 22.0431 31.114 22.0871C31.114 22.1662 31.0966 22.2102 31.0529 22.2278Z" fill="white"/>
<path id="Vector_3" d="M14.4344 18.0481C14.6078 18.0546 14.7805 18.0217 14.9394 17.9516C15.0984 17.8816 15.2395 17.7763 15.3523 17.6436L15.0376 17.3271C14.9628 17.4087 14.8724 17.4742 14.7717 17.5195C14.671 17.5649 14.5622 17.5891 14.4519 17.5909C14.3631 17.5888 14.2756 17.5688 14.1946 17.532C14.1136 17.4953 14.0408 17.4425 13.9804 17.3769C13.9201 17.3113 13.8735 17.2342 13.8434 17.1501C13.8132 17.066 13.8002 16.9767 13.805 16.8875V16.8787C13.8002 16.7895 13.8133 16.7002 13.8434 16.6161C13.8736 16.5321 13.9202 16.455 13.9805 16.3894C14.0409 16.3238 14.1137 16.271 14.1946 16.2342C14.2756 16.1975 14.3631 16.1774 14.4519 16.1753C14.5588 16.1773 14.6642 16.2009 14.7618 16.2447C14.8594 16.2885 14.9472 16.3516 15.0201 16.4303L15.3348 16.0698C15.2193 15.9541 15.0812 15.8639 14.9292 15.8049C14.7772 15.7458 14.6147 15.7193 14.4519 15.7269C14.2989 15.7228 14.1466 15.75 14.0043 15.8068C13.862 15.8636 13.7326 15.9488 13.624 16.0572C13.5153 16.1657 13.4296 16.2952 13.3721 16.4379C13.3146 16.5806 13.2864 16.7335 13.2893 16.8875V16.8963C13.2868 17.0482 13.3148 17.1991 13.3715 17.3399C13.4282 17.4808 13.5124 17.6087 13.6193 17.7162C13.7261 17.8236 13.8533 17.9084 13.9933 17.9654C14.1334 18.0224 14.2834 18.0506 14.4344 18.0481ZM17.4503 17.5645H16.2352V17.0985H17.2929V16.6589H16.2352V16.2017H17.4328V15.762H15.7457V18.0129H17.4503V17.5645ZM18.3856 17.2919H18.779L19.2598 18.0129H19.8367L19.286 17.2128C19.4312 17.1667 19.557 17.0735 19.644 16.9478C19.731 16.8222 19.7742 16.6711 19.7668 16.5182V16.5094C19.7701 16.4158 19.7548 16.3225 19.7218 16.2349C19.6887 16.1473 19.6387 16.0673 19.5745 15.9994C19.486 15.9191 19.3823 15.8575 19.2697 15.8182C19.1571 15.779 19.0378 15.7628 18.9189 15.7708H17.8961V18.0129H18.3856L18.3856 17.2919ZM18.3856 16.2016H18.8752C19.1112 16.2016 19.2598 16.3072 19.2598 16.527V16.5358C19.2598 16.7292 19.1199 16.8523 18.8839 16.8523H18.3856V16.2016ZM20.7196 18.0129H21.2092V16.2192H21.891V15.762H20.0378V16.2192H20.7196L20.7196 18.0129ZM22.2931 15.762H22.7827V18.0129H22.2931V15.762ZM23.8317 17.1337H24.9069V16.6853H23.8317V16.2104H25.0467V15.762H23.3421V18.0129H23.8317V17.1337ZM25.4663 15.762H25.9559V18.0129H25.4663V15.762ZM28.2199 17.5645H27.0049V17.0985H28.0539V16.6589H27.0049V16.2017H28.2025V15.762H26.5153V18.0129H28.22L28.2199 17.5645ZM30.7201 16.8875C30.7201 16.2456 30.2305 15.762 29.5312 15.762H28.657V18.0129H29.5312C30.2305 18.0129 30.7201 17.5205 30.7201 16.8875ZM29.1466 16.2016H29.5312C29.6207 16.1972 29.7102 16.2117 29.7939 16.2442C29.8775 16.2766 29.9535 16.3264 30.0169 16.3901C30.0803 16.4539 30.1297 16.5303 30.162 16.6145C30.1943 16.6986 30.2087 16.7886 30.2043 16.8787V16.8875C30.2085 16.9771 30.1939 17.0666 30.1614 17.1502C30.129 17.2338 30.0794 17.3096 30.0159 17.3726C29.9524 17.4356 29.8764 17.4845 29.7929 17.5161C29.7094 17.5476 29.6202 17.5611 29.5312 17.5557H29.1466V16.2016Z" fill="#427AF4"/>
<path id="Vector_4" d="M12.3545 23.7402H31.656V30.0779H12.3545V23.7402Z" fill="white"/>
<path id="Vector_5" d="M14.8465 26.328L15.0909 26.0337C15.2442 26.176 15.4436 26.2575 15.6521 26.2632C15.8212 26.2632 15.9233 26.1957 15.9233 26.0849V26.0796C15.9233 25.9742 15.8589 25.9202 15.5447 25.8392C15.166 25.742 14.9217 25.6365 14.9217 25.2612V25.2558C14.9217 24.9127 15.1955 24.6858 15.5796 24.6858C15.8331 24.6817 16.08 24.7667 16.2778 24.9262L16.0629 25.2395C15.9225 25.1292 15.7521 25.0642 15.5742 25.0532C15.4158 25.0532 15.3325 25.1261 15.3325 25.2179V25.2234C15.3325 25.3476 15.413 25.3881 15.738 25.4718C16.1193 25.5717 16.3341 25.7095 16.3341 26.039V26.0444C16.3341 26.4199 16.0496 26.6306 15.644 26.6306C15.3503 26.6317 15.0664 26.524 14.8465 26.328ZM16.7611 24.7128H18.1789V25.0829H17.1718V25.4664H18.058V25.8364H17.1718V26.2335H18.1923V26.6035H16.7611V24.7128ZM18.5442 25.6636V25.6582C18.5419 25.5285 18.5658 25.3996 18.6143 25.2794C18.6628 25.1592 18.7351 25.0501 18.8267 24.9587C18.9183 24.8674 19.0273 24.7956 19.1472 24.7478C19.2671 24.6999 19.3954 24.677 19.5243 24.6804C19.6614 24.6735 19.7983 24.696 19.926 24.7463C20.0538 24.7965 20.1695 24.8735 20.2655 24.9721L20.0023 25.2773C19.8761 25.1456 19.7035 25.069 19.5217 25.064C19.4471 25.0655 19.3736 25.0821 19.3055 25.1127C19.2374 25.1433 19.1761 25.1874 19.1252 25.2423C19.0744 25.2972 19.035 25.3619 19.0095 25.4324C18.984 25.5029 18.9728 25.5778 18.9766 25.6528V25.6582C18.9722 25.7335 18.983 25.809 19.0082 25.88C19.0335 25.9511 19.0727 26.0163 19.1236 26.0718C19.1745 26.1273 19.236 26.1719 19.3044 26.2029C19.3728 26.2339 19.4467 26.2508 19.5217 26.2524C19.6147 26.2516 19.7066 26.2315 19.7916 26.1934C19.8766 26.1553 19.9529 26.1 20.0157 26.0309L20.279 26.2983C20.1843 26.4097 20.0658 26.4979 19.9322 26.5564C19.7987 26.6149 19.6537 26.6421 19.5082 26.6359C19.3808 26.638 19.2543 26.6143 19.1362 26.5661C19.0182 26.5179 18.9109 26.4463 18.821 26.3556C18.731 26.2648 18.6602 26.1568 18.6126 26.0379C18.5651 25.919 18.5418 25.7917 18.5442 25.6636ZM20.6468 25.7933V24.7128H21.0602V25.7824C21.0602 26.0903 21.2133 26.2497 21.4657 26.2497C21.7181 26.2497 21.8712 26.0957 21.8712 25.7959V24.7128H22.2848V25.7797C22.2848 26.3524 21.9651 26.6333 21.4604 26.6333C20.9556 26.6333 20.6468 26.3496 20.6468 25.7933ZM22.7735 24.7128H23.6328C23.7323 24.7065 23.8319 24.7203 23.926 24.7532C24.0201 24.7862 24.1067 24.8376 24.1807 24.9046C24.2349 24.9622 24.277 25.0301 24.3047 25.1043C24.3323 25.1786 24.3449 25.2576 24.3417 25.3368V25.3422C24.3477 25.4708 24.3116 25.5978 24.2388 25.7037C24.1661 25.8096 24.0607 25.8885 23.939 25.9283L24.3982 26.6035H23.9148L23.5121 25.9985H23.1871V26.6035H22.7735V24.7128ZM23.606 25.6312C23.8073 25.6312 23.9228 25.5232 23.9228 25.3637V25.3584C23.9228 25.1801 23.7993 25.0883 23.5979 25.0883H23.1871V25.6312H23.606ZM24.8009 24.7128H25.2145V26.6035H24.8009V24.7128ZM26.1892 25.0964H25.6172V24.7128H27.1747V25.0964H26.6027V26.6035H26.1892L26.1892 25.0964ZM28.0875 25.8581L27.3653 24.7128H27.8486L28.2971 25.4718L28.7536 24.7128H29.2235L28.5011 25.8499V26.6035H28.0875V25.8581ZM13.6475 28.8737L13.8918 28.5794C14.0451 28.7217 14.2445 28.8032 14.453 28.8089C14.6221 28.8089 14.7243 28.7414 14.7243 28.6307V28.6253C14.7243 28.52 14.6598 28.4659 14.3456 28.3849C13.967 28.2877 13.7226 28.1823 13.7226 27.8069V27.8015C13.7226 27.4584 13.9964 27.2315 14.3805 27.2315C14.634 27.2274 14.8809 27.3124 15.0787 27.4719L14.8638 27.7852C14.7234 27.6749 14.553 27.6099 14.3751 27.5989C14.2168 27.5989 14.1334 27.6718 14.1334 27.7636V27.7691C14.1334 27.8933 14.214 27.9338 14.5389 28.0175C14.9202 28.1175 15.1351 28.2552 15.1351 28.5848V28.5901C15.1351 28.9656 14.8505 29.1763 14.445 29.1763C14.1512 29.1774 13.8673 29.0697 13.6475 28.8737ZM15.562 27.2585H16.33C16.7784 27.2585 17.0496 27.5259 17.0496 27.9122V27.9176C17.0496 28.3551 16.7113 28.582 16.2896 28.582H15.9756V29.1493H15.562V27.2585ZM16.3031 28.212C16.3438 28.2172 16.385 28.2137 16.4242 28.2017C16.4634 28.1898 16.4997 28.1696 16.5306 28.1426C16.5615 28.1156 16.5864 28.0823 16.6037 28.0449C16.6209 28.0075 16.6301 27.9669 16.6307 27.9257V27.9203C16.6307 27.7339 16.5019 27.634 16.2951 27.634H15.9756V28.212L16.3031 28.212ZM17.4229 27.2585H18.8408V27.6286H17.8337V28.0121H18.7199V28.3821H17.8337V28.7793H18.8542V29.1493H17.4229V27.2585ZM19.206 28.2093V28.2039C19.2037 28.0742 19.2275 27.9453 19.276 27.8251C19.3246 27.7049 19.3968 27.5958 19.4884 27.5045C19.58 27.4131 19.689 27.3413 19.8089 27.2935C19.9288 27.2457 20.0571 27.2227 20.1861 27.2261C20.3231 27.2193 20.46 27.2417 20.5878 27.292C20.7155 27.3423 20.8312 27.4192 20.9272 27.5178L20.6641 27.823C20.5379 27.6913 20.3653 27.6147 20.1834 27.6097C20.1088 27.6112 20.0353 27.6278 19.9672 27.6584C19.8991 27.689 19.8378 27.7331 19.787 27.788C19.7361 27.843 19.6968 27.9076 19.6712 27.9781C19.6457 28.0486 19.6345 28.1236 19.6384 28.1985V28.2039C19.634 28.2792 19.6447 28.3547 19.67 28.4258C19.6952 28.4968 19.7345 28.5621 19.7854 28.6175C19.8362 28.673 19.8977 28.7176 19.9661 28.7486C20.0345 28.7796 20.1084 28.7965 20.1834 28.7981C20.2765 28.7973 20.3683 28.7772 20.4533 28.7391C20.5383 28.701 20.6146 28.6457 20.6774 28.5766L20.9407 28.8441C20.8461 28.9554 20.7275 29.0436 20.594 29.1021C20.4604 29.1606 20.3154 29.1878 20.1699 29.1817C20.0425 29.1837 19.916 29.16 19.798 29.1118C19.6799 29.0636 19.5727 28.9921 19.4827 28.9013C19.3928 28.8106 19.3219 28.7025 19.2743 28.5836C19.2268 28.4647 19.2036 28.3374 19.206 28.2093ZM21.357 27.2585H21.7705V29.1493H21.357V27.2585ZM22.952 27.245H23.3333L24.1389 29.1493H23.7067L23.5348 28.7252H22.7399L22.5681 29.1493H22.1464L22.952 27.245ZM23.387 28.3579L23.1374 27.7447L22.8876 28.3579H23.387ZM24.4961 27.2585H24.9097V28.7711H25.8468V29.1493H24.4961V27.2585ZM26.2442 27.2585H26.6578V29.1493H26.2442V27.2585ZM27.0659 28.8737L27.3103 28.5794C27.4636 28.7217 27.663 28.8032 27.8715 28.8089C28.0406 28.8089 28.1427 28.7414 28.1427 28.6307V28.6253C28.1427 28.52 28.0783 28.4659 27.7641 28.3849C27.3854 28.2877 27.1411 28.1823 27.1411 27.8069V27.8015C27.1411 27.4584 27.4149 27.2315 27.799 27.2315C28.0525 27.2274 28.2994 27.3124 28.4972 27.4719L28.2823 27.7852C28.1419 27.6749 27.9715 27.6099 27.7936 27.5989C27.6352 27.5989 27.5518 27.6718 27.5518 27.7636V27.7691C27.5518 27.8933 27.6324 27.9338 27.9574 28.0175C28.3386 28.1175 28.5535 28.2552 28.5535 28.5848V28.5901C28.5535 28.9656 28.2689 29.1763 27.8634 29.1763C27.5697 29.1774 27.2858 29.0697 27.0659 28.8737ZM29.3779 27.6421H28.806V27.2585H30.3634V27.6421H29.7915V29.1493H29.3779V27.6421Z" fill="#427AF4"/>
</g>
</g>
</svg>
